<mxfile host="65bd71144e">
    <diagram id="ZxPrtbY7UGWZNW7MG-Ed" name="Page-1">
        <mxGraphModel dx="817" dy="407" grid="1" gridSize="10" guides="1" tooltips="1" connect="1" arrows="1" fold="1" page="1" pageScale="1" pageWidth="850" pageHeight="1100" math="0" shadow="0">
            <root>
                <mxCell id="0"/>
                <mxCell id="1" parent="0"/>
                <mxCell id="2" value="User" style="swimlane;fillColor=none;strokeColor=#000000;" vertex="1" parent="1">
                    <mxGeometry x="80" y="50" width="200" height="200" as="geometry"/>
                </mxCell>
            </root>
        </mxGraphModel>
    </diagram>
</mxfile>